<?xml version="1.0" standalone="no"?><!DOCTYPE svg PUBLIC "-//W3C//DTD SVG 1.1//EN" "http://www.w3.org/Graphics/SVG/1.1/DTD/svg11.dtd"><svg t="1606902479609" class="icon" viewBox="0 0 1024 1024" version="1.1" xmlns="http://www.w3.org/2000/svg" p-id="34791" xmlns:xlink="http://www.w3.org/1999/xlink" width="200" height="200"><defs><style type="text/css"></style></defs><path d="M989.559 322.338l-458.434 444.209-163.719 31.729 32.743-158.645 458.426-444.212c0 0 31.721-32.719 65.491 0 29.675 28.756 36.839 35.699 65.492 63.461 33.767 32.723 0.002 63.457 0.002 63.457v0zM400.149 766.547l130.977-31.727-98.234-95.187-32.745 126.914zM531.126 703.090l360.196-349.020-65.494-63.455-360.192 349.019 65.489 63.456zM891.316 227.152l-32.741 31.726 65.497 63.461 32.741-31.729-65.497-63.457zM858.575 90.368c0 4.624 0-2.897 0 31.559l32.741 0.17v-31.725c0-62.979-65.494-63.461-65.494-63.461h-753.129c0 0-65.486 0.481-65.486 63.461v834.823c0 63.44 65.486 63.453 65.486 63.453h753.124c65.497 0 65.497-63.453 65.497-63.453v-412.482l-32.741-0.225v412.705c0 0 1.022 31.734-32.753 31.734h-753.125c-32.747 0-32.747-31.734-32.747-31.734v-834.823c0-31.729 32.747-31.73 32.747-31.73l753.125 0.001c0 0.001 32.753 0 32.753 31.728z" p-id="34792"></path></svg>