<?xml version="1.0" standalone="no"?><!DOCTYPE svg PUBLIC "-//W3C//DTD SVG 1.1//EN" "http://www.w3.org/Graphics/SVG/1.1/DTD/svg11.dtd"><svg t="1606902431880" class="icon" viewBox="0 0 1024 1024" version="1.1" xmlns="http://www.w3.org/2000/svg" p-id="33286" xmlns:xlink="http://www.w3.org/1999/xlink" width="200" height="200"><defs><style type="text/css"></style></defs><path d="M673.496138 536.62484c-27.525913-12.308327-61.372789-22.62837-70.195735-25.168216 18.326391-10.506285 35.379789-23.506367 50.718125-38.851866 45.367257-45.37749 70.355371-105.711624 70.355371-169.887248 0-64.179718-24.988114-124.511805-70.355371-169.891342-45.369304-45.379537-105.692181-70.370721-169.851433-70.370721-64.162322 0-124.481106 24.991184-169.850409 70.370721-45.36828 45.384653-70.352301 105.711624-70.352301 169.891342 0 64.175625 24.984021 124.509758 70.352301 169.887248 15.57472 15.579837 32.91669 28.756951 51.563376 39.344077-8.396227 2.463098-16.726963 5.174859-24.982998 8.162914-44.709271 16.182564-86.161359 39.669488-123.208113 69.801762-74.263377 60.405765-126.453017 144.876622-146.94677 237.855246-2.916423 13.232372 5.446036 26.328645 18.675338 29.248138 1.785669 0.393973 3.559059 0.580215 5.304819 0.580215 11.262508 0 21.416775-7.803733 23.939225-19.261693 18.119683-82.199117 64.284095-156.900469 129.990586-210.341612 32.767288-26.650987 69.419046-47.420009 108.943224-61.729923 40.896432-14.801101 83.904968-22.311145 127.826294-22.311145 43.790342 0 96.062869 8.011464 140.674926 26.140357M293.03601 302.716486c0-105.414865 85.74078-191.177134 191.130062-191.177134 105.394399 0 191.133132 85.761246 191.133132 191.177134 0 105.417935-85.738733 191.178157-191.133132 191.178157C378.776789 493.894643 293.03601 408.134421 293.03601 302.716486L293.03601 302.716486zM293.03601 302.716486" p-id="33287"></path><path d="M762.308883 853.812923l148.606573 0-32.295544-32.374338c-5.423523-5.435803-5.423523-14.249539 0-19.686365 5.421476-5.437849 14.216793-5.437849 19.641339 0l55.996338 56.129368c0.167822 0.164752 0.329505 0.338714 0.487094 0.5137 0.058328 0.062422 0.112564 0.12689 0.166799 0.190335 0.091074 0.107447 0.186242 0.213871 0.276293 0.322341 0.079818 0.098237 0.152473 0.194428 0.228197 0.291642 0.063445 0.083911 0.124843 0.160659 0.186242 0.242524 0.083911 0.112564 0.160659 0.225127 0.239454 0.338714 0.051165 0.071631 0.100284 0.141216 0.149403 0.214894 0.078795 0.118704 0.153496 0.237407 0.230244 0.361227 0.046049 0.068562 0.090051 0.141216 0.132006 0.211824 0.074701 0.121773 0.140193 0.2415 0.207731 0.36532 0.045025 0.075725 0.088004 0.152473 0.12996 0.229221 0.063445 0.115634 0.119727 0.233314 0.178055 0.348947 0.044002 0.088004 0.090051 0.178055 0.12996 0.268106 0.052189 0.104377 0.098237 0.211824 0.144286 0.317225 0.047072 0.106424 0.091074 0.208754 0.135076 0.315178 0.040932 0.093121 0.077771 0.189312 0.113587 0.286526 0.046049 0.119727 0.091074 0.236384 0.1361 0.358157 0.028653 0.084934 0.056282 0.169869 0.083911 0.252757 0.045025 0.134053 0.090051 0.268106 0.130983 0.403183 0.020466 0.072655 0.042979 0.146333 0.061398 0.223081 0.042979 0.144286 0.082888 0.288572 0.119727 0.437975 0.016373 0.067538 0.029676 0.135076 0.046049 0.206708 0.034792 0.148379 0.068562 0.302899 0.098237 0.454348 0.016373 0.071631 0.026606 0.141216 0.038886 0.212848 0.028653 0.152473 0.053212 0.300852 0.077771 0.453325 0.010233 0.079818 0.01842 0.163729 0.029676 0.243547 0.01842 0.141216 0.037862 0.284479 0.051165 0.426719 0.010233 0.109494 0.016373 0.220011 0.024559 0.324388 0.010233 0.118704 0.020466 0.234337 0.024559 0.353041 0.010233 0.203638 0.014326 0.407276 0.017396 0.60989 0 0.024559 0.001023 0.051165 0.001023 0.075725 0 0.027629-0.001023 0.050142-0.001023 0.075725-0.00307 0.203638-0.00614 0.408299-0.017396 0.610914-0.004093 0.11768-0.014326 0.233314-0.024559 0.352017-0.008186 0.107447-0.014326 0.214894-0.024559 0.325411-0.013303 0.143263-0.031722 0.284479-0.051165 0.425695-0.011256 0.081864-0.020466 0.163729-0.029676 0.243547-0.024559 0.152473-0.049119 0.303922-0.077771 0.455371-0.01228 0.070608-0.022513 0.141216-0.038886 0.210801-0.029676 0.153496-0.063445 0.304945-0.098237 0.455371-0.017396 0.069585-0.029676 0.138146-0.046049 0.207731-0.036839 0.148379-0.077771 0.293689-0.119727 0.436952-0.01842 0.074701-0.040932 0.149403-0.061398 0.223081-0.040932 0.135076-0.085958 0.270153-0.130983 0.403183-0.027629 0.085958-0.055259 0.169869-0.083911 0.252757-0.045025 0.12075-0.089028 0.2415-0.1361 0.358157-0.036839 0.098237-0.072655 0.193405-0.113587 0.286526-0.044002 0.105401-0.088004 0.210801-0.135076 0.314155-0.046049 0.107447-0.092098 0.212848-0.144286 0.320295-0.039909 0.088004-0.085958 0.177032-0.12996 0.267083-0.058328 0.116657-0.11768 0.232291-0.178055 0.347924-0.041956 0.076748-0.084934 0.155543-0.12996 0.231267-0.067538 0.121773-0.134053 0.245593-0.207731 0.36532-0.041956 0.070608-0.089028 0.141216-0.132006 0.214894-0.076748 0.119727-0.151449 0.23843-0.230244 0.357134-0.049119 0.072655-0.101307 0.144286-0.149403 0.214894-0.079818 0.11461-0.157589 0.225127-0.239454 0.338714-0.062422 0.083911-0.122797 0.160659-0.186242 0.242524-0.075725 0.096191-0.148379 0.195451-0.228197 0.291642-0.089028 0.10847-0.184195 0.214894-0.276293 0.322341-0.054235 0.063445-0.10847 0.12689-0.166799 0.191358-0.158612 0.176009-0.320295 0.345877-0.487094 0.512676l-55.996338 56.127322c-2.712785 2.719948-6.266727 4.077875-9.822716 4.077875-3.554966 0-7.107885-1.358951-9.82067-4.077875-5.423523-5.435803-5.423523-14.252609 0-19.687388l32.29759-32.371268L762.308883 881.659131c-7.670703 0-13.888312-6.232958-13.888312-13.922081C748.420571 860.044858 754.638179 853.812923 762.308883 853.812923L762.308883 853.812923zM804.428166 687.400822c0-7.689123-6.220678-13.922081-13.891382-13.922081L608.401584 673.478741c-7.670703 0-13.890358 6.232958-13.890358 13.922081 0 7.689123 6.219655 13.921058 13.890358 13.921058l182.1352 0C798.208511 701.32188 804.428166 695.089945 804.428166 687.400822L804.428166 687.400822zM776.424368 768.088516c0-7.689123-6.219655-13.921058-13.889335-13.921058L608.401584 754.167458c-7.670703 0-13.890358 6.231935-13.890358 13.921058s6.219655 13.921058 13.890358 13.921058l154.13345 0C770.204713 782.009574 776.424368 775.777639 776.424368 768.088516L776.424368 768.088516zM608.401584 831.211159c-7.670703 0-13.890358 6.232958-13.890358 13.920034 0 7.688099 6.219655 13.923104 13.890358 13.923104l84.010369 0c7.670703 0 13.889335-6.235005 13.889335-13.923104 0-7.687076-6.218632-13.920034-13.889335-13.920034L608.401584 831.211159 608.401584 831.211159zM815.304887 936.862407c3.64297-7.614421 5.617951-5.571902 5.617951-13.322423 0-7.637957-6.091742-20.437471-13.667278-20.618597l0-0.008186L575.254649 902.913201c-4.946662 0-2.364861 2.558265-2.364861-2.39863L572.889789 631.267361c0-4.957919-2.581802-2.400676 2.364861-2.400676l248.431116 0c4.945639 0 2.366907-2.558265 2.366907 2.400676l0 166.406984c0 7.688099 12.822027 13.920034 20.49273 13.920034 7.66968 0 20.493753-6.231935 20.493753-13.920034L867.039155 631.267361c0-20.310581-23.090904-43.427068-43.35339-43.427068L575.254649 587.840292c-20.263509 0-43.35339 23.115464-43.35339 43.427068l0 269.246187c0 20.308535 23.089881 43.423999 43.35339 43.423999l229.173516 0" p-id="33288"></path></svg>