<?xml version="1.0" standalone="no"?><!DOCTYPE svg PUBLIC "-//W3C//DTD SVG 1.1//EN" "http://www.w3.org/Graphics/SVG/1.1/DTD/svg11.dtd"><svg t="1606976539489" class="icon" viewBox="0 0 1024 1024" version="1.1" xmlns="http://www.w3.org/2000/svg" p-id="4441" xmlns:xlink="http://www.w3.org/1999/xlink" width="200" height="200"><defs><style type="text/css"></style></defs><path d="M844.863896 1000.032007H171.808106c-76.799976 0-139.807956-59.199982-139.807956-132.703958V132.544279C32.00015 59.072302 94.72013 0.00032 171.808106 0.00032h119.359963v55.103983H171.840106c-46.687985 0-84.703974 34.719989-84.703973 77.439976v734.78377c0 42.719987 37.951988 77.439976 84.703973 77.439976h673.15179c46.655985 0 84.671974-34.719989 84.671973-77.439976V132.544279c0-42.719987-37.919988-77.439976-84.671973-77.439976h-111.359965V0.00032h111.263965c76.799976-0.192 139.775956 59.071982 139.775956 132.543959v734.78377c0 73.471977-63.00798 132.703959-139.775956 132.703958z" fill="#333333" p-id="4442"></path><path d="M617.311967 55.104303h-172.927946a27.551991 27.551991 0 0 1 0-55.103983h172.927946a27.551991 27.551991 0 0 1 0 55.103983zM730.239932 308.800223H202.528097a27.551991 27.551991 0 0 1 0-55.135982h527.679835a27.551991 27.551991 0 0 1 0 55.135982z m-193.85594 207.679936H192.9281c-9.919997 0-17.919994-12.319996-17.919995-27.519992 0-15.231995 7.999998-27.551991 17.919995-27.551991H536.319992c9.919997 0 17.919994 12.319996 17.919995 27.519991 0 15.231995-7.999998 27.583991-17.919995 27.583992z m-144.543954 207.679935h-206.079936c-5.919998 0-10.751997-12.351996-10.751997-27.583992s4.799999-27.551991 10.751997-27.551991h206.079936c5.919998 0 10.751997 12.319996 10.751996 27.551991s-4.799999 27.551991-10.751996 27.551992z m504.287842-301.215906a15.199995 15.199995 0 0 0-24.543992-4.287999L829.119901 461.120176l-15.679995-15.679995 42.175987-42.239987a15.199995 15.199995 0 0 0-4.479999-24.607992 92.799971 92.799971 0 0 0-37.855988-8.127998c-24.351992 0-47.231985 9.471997-64.38398 26.655992a91.935971 91.935971 0 0 0-22.399993 92.159971l-113.407965 113.471965a92.319971 92.319971 0 0 0-92.191971 22.367993 91.903971 91.903971 0 0 0-18.495994 102.239968 15.103995 15.103995 0 0 0 11.103997 8.671997 15.039995 15.039995 0 0 0 13.503995-4.191999l41.599987-41.599987 15.679995 15.711995-41.823987 41.855987a15.263995 15.263995 0 0 0 4.255999 24.543993 92.799971 92.799971 0 0 0 39.263988 8.767997c24.319992 0 47.167985-9.439997 64.31998-26.623992a91.615971 91.615971 0 0 0 21.855993-93.407971l112.703965-112.703964c9.375997 3.135999 19.199994 4.735999 29.119991 4.735998 24.319992 0 47.135985-9.439997 64.28798-26.591992a91.711971 91.711971 0 0 0 17.855994-103.583967z m-31.93599 78.751975a64.95998 64.95998 0 0 1-72.319977 12.383996 15.935995 15.935995 0 0 0-18.047995 3.135999l-132.735958 132.735959a15.903995 15.903995 0 0 0-3.167999 18.047994c11.519996 24.383992 6.527998 53.439983-12.351996 72.319978a62.78398 62.78398 0 0 1-48.223985 18.431994l35.423989-35.455989a15.807995 15.807995 0 0 0 0-22.527993l-38.943988-38.943988a15.935995 15.935995 0 0 0-22.495993 0L516.479999 696.640102a63.10398 63.10398 0 0 1 18.591994-46.719985 64.86398 64.86398 0 0 1 71.423977-12.831996c6.047998 2.655999 13.119996 1.376 17.823995-3.263999l133.247958-133.311958a15.935995 15.935995 0 0 0 3.295999-17.791995 63.51998 63.51998 0 0 1 59.455982-89.983972l-35.327989 35.359989a15.903995 15.903995 0 0 0 0 22.495993l38.943988 38.943988a15.807995 15.807995 0 0 0 22.495992 0l36.095989-36.095989a63.67998 63.67998 0 0 1-18.399994 48.255985z" fill="#333333" p-id="4443"></path></svg>