<?xml version="1.0" standalone="no"?><!DOCTYPE svg PUBLIC "-//W3C//DTD SVG 1.1//EN" "http://www.w3.org/Graphics/SVG/1.1/DTD/svg11.dtd"><svg t="1606976504496" class="icon" viewBox="0 0 1024 1024" version="1.1" xmlns="http://www.w3.org/2000/svg" p-id="2851" xmlns:xlink="http://www.w3.org/1999/xlink" width="200" height="200"><defs><style type="text/css"></style></defs><path d="M828.928 0H195.072c-81.92 7.168-143.36 78.848-138.24 160.768v701.952c-5.12 82.432 56.32 153.6 138.24 160.768h633.856c81.92-7.168 143.36-78.848 138.24-160.768V160.768c6.656-81.92-54.272-154.112-136.192-160.768h-2.048z m81.408 868.352c0 46.592-38.912 97.792-78.336 97.792H195.072c-39.936 0-79.872-51.2-79.872-97.792V160.768c0-46.592 39.936-97.792 79.872-97.792h633.856c39.936 0 78.336 51.2 78.336 97.792l3.072 707.584z m-108.544-200.704H494.08c-22.528 0-31.232 6.144-31.232 26.624s13.312 27.136 31.232 27.136h307.712c22.016 0 31.232-6.144 31.232-27.136 0.512-20.48-13.312-26.624-31.232-26.624z m-490.496-105.984c-54.272 2.56-96.256 49.152-93.184 103.424 0 2.048 0.512 4.096 0.512 5.632 3.584 49.664 43.008 89.6 92.672 94.208 51.2-1.024 92.16-43.008 91.648-94.208 7.168-52.736-29.696-101.376-81.92-108.544-3.584-0.512-6.656-0.512-9.728-0.512z m0 145.408c-22.016 0-35.84-15.872-35.84-41.472s13.824-41.984 35.84-41.984 35.84 15.872 35.84 41.984c1.536 21.504-14.336 39.936-35.84 41.472z" p-id="2852"></path><path d="M449.536 260.096c13.824 14.336 13.824 37.376 0 51.712L327.68 446.976c-6.656 7.168-15.872 11.264-25.6 11.776-8.192-1.536-15.36-5.632-20.992-11.776l-71.68-80.384c-11.264-15.872-18.944-34.304-5.12-50.176 1.536-2.56 4.096-4.608 6.144-6.144 12.288-8.704 29.184-6.144 38.4 6.144l53.248 66.56 98.304-114.176c13.312-8.704 22.016-24.576 49.152-8.704z" fill="#DA0029" p-id="2853"></path><path d="M833.536 353.28c0 20.992-9.216 27.136-31.232 27.136H494.08c-18.432 0-31.232-6.656-31.232-27.136s8.704-26.624 31.232-26.624h307.712c17.92 0 31.744 5.632 31.744 26.624z" fill="#DA0029" p-id="2854"></path></svg>