<?xml version="1.0" standalone="no"?><!DOCTYPE svg PUBLIC "-//W3C//DTD SVG 1.1//EN" "http://www.w3.org/Graphics/SVG/1.1/DTD/svg11.dtd"><svg t="1606902403676" class="icon" viewBox="0 0 1024 1024" version="1.1" xmlns="http://www.w3.org/2000/svg" p-id="33145" xmlns:xlink="http://www.w3.org/1999/xlink" width="200" height="200"><defs><style type="text/css"></style></defs><path d="M533.202273 68.254897c146.537931 0 255.646897 126.305103 259.03669 293.570206v331.069794l61.334069 3.425103c30.72 3.425103 47.739586 20.48 57.944276 30.72 6.814897 10.24 10.24 20.48 10.24 27.294897-10.24 20.48-27.259586 30.72-51.12938 30.72H148.001721c-27.294897 0-44.314483-23.869793-44.314482-47.774897a47.810207 47.810207 0 0 1 47.704275-40.96h6.814897l74.999172 10.24v-348.16c-3.425103-163.84 109.073655-290.145103 255.646897-290.145103h44.314483zM533.202273 0h-47.739586c-187.497931 0-323.831172 160.414897-323.831173 358.4v273.054897H147.966411c-57.979586 0-105.683862 44.385103-112.498759 102.4v3.425103c-3.425103 64.865103 44.314483 119.454897 109.108966 122.88h725.98069c51.16469 0 98.868966-34.145103 115.923862-81.92 13.629793-58.014897-37.499586-139.934897-126.128552-146.785103v-269.629794C860.387928 163.84 724.054687 0 533.202273 0z m136.297931 890.88H352.519239c0 71.68 71.574069 133.12 160.203034 133.12 85.203862 0 156.777931-58.014897 156.777931-133.12z" p-id="33146"></path></svg>