<?xml version="1.0" standalone="no"?><!DOCTYPE svg PUBLIC "-//W3C//DTD SVG 1.1//EN" "http://www.w3.org/Graphics/SVG/1.1/DTD/svg11.dtd"><svg t="1606976472900" class="icon" viewBox="0 0 1024 1024" version="1.1" xmlns="http://www.w3.org/2000/svg" p-id="1962" xmlns:xlink="http://www.w3.org/1999/xlink" width="200" height="200"><defs><style type="text/css"></style></defs><path d="M512 0C229.2 0 0 229.2 0 512s229.2 512 512 512c282.7 0 512-229.2 512-512S794.7 0 512 0z m0 968.3C260.4 968.3 55.7 763.6 55.7 512 55.7 260.4 260.4 55.7 512 55.7c251.6 0 456.2 204.6 456.2 456.2 0.1 251.7-204.6 456.4-456.2 456.4z" fill="#7E7E7F" p-id="1963"></path><path d="M537.6 504.1l-2.5-2.5V230.2c-0.3-14.4-12.5-26.3-27.1-26.3-14.6 0-26.8 11.9-27.1 26.5v282.5c0 7.1 2.9 14.1 8 19.2l131.9 131.4c5 5 12 7.9 19.1 7.9 11.1 0 20.9-6.6 25.1-16.7 4.2-10.2 1.9-21.8-5.9-29.6l-121.5-121z" fill="#7E7E7F" p-id="1964"></path></svg>