<?xml version="1.0" standalone="no"?><!DOCTYPE svg PUBLIC "-//W3C//DTD SVG 1.1//EN" "http://www.w3.org/Graphics/SVG/1.1/DTD/svg11.dtd"><svg t="1606901586201" class="icon" viewBox="0 0 1024 1024" version="1.1" xmlns="http://www.w3.org/2000/svg" p-id="33002" xmlns:xlink="http://www.w3.org/1999/xlink" width="200" height="200"><defs><style type="text/css"></style></defs><path d="M738.88768 459.79648c-150.58944 0-271.06304 122.48064-271.06304 273.06496 0 150.58944 122.47552 273.07008 271.06304 273.07008 150.58432 0 271.0528-122.48064 271.0528-273.07008 0.00512-150.58432-120.46336-273.06496-271.0528-273.06496z m0 503.96672c-128.50688 0-232.91392-104.40704-232.91392-232.9088s104.40704-232.9088 232.91392-232.9088c128.50176 0 232.90368 104.40704 232.90368 232.9088s-104.40192 232.9088-232.90368 232.9088z m-347.35616-281.09312H190.7456c-12.04736 0-20.07552-8.03328-20.07552-20.08064 0-12.05248 8.02816-20.08064 20.07552-20.08064h200.78592c12.04736 0 20.07552 8.02816 20.07552 20.08064 0 12.04736-8.02816 20.08064-20.07552 20.08064zM170.66496 261.0176c0-12.04736 8.02816-20.08064 20.07552-20.08064h481.88416c12.04736 0 20.07552 8.03328 20.07552 20.08064s-8.02816 20.07552-20.07552 20.07552H190.7456c-12.04736 0.00512-20.08064-8.02816-20.08064-20.07552zM512 461.80352H190.7456c-12.04736 0-20.07552-8.03328-20.07552-20.08064s8.02816-20.07552 20.07552-20.07552H512c12.05248 0 20.08064 8.02816 20.08064 20.07552s-8.02816 20.08064-20.08064 20.08064z" p-id="33003"></path><path d="M813.17888 120.46848c0-44.17024-36.1472-80.31232-80.32256-80.31232H130.5088c-44.17024 0-80.31744 36.14208-80.31744 80.31232v762.9824c0 44.17024 36.14208 80.31744 80.31744 80.31744h367.4368a379.75552 379.75552 0 0 0 40.15616 40.15616H130.5088c-66.25792 0-120.46848-54.21056-120.46848-120.46848V120.46848C10.04032 54.21056 64.25088 0 130.5088 0h602.34752c66.25792 0 120.46848 54.21056 120.46848 120.46848v293.1456c-14.04928-4.01408-26.10176-6.02112-40.15104-8.02816V120.46848h0.00512z" p-id="33004"></path><path d="M851.34848 832.29696H673.3824a16.23552 16.23552 0 0 1-16.23552-16.2304v-199.76192a16.2304 16.2304 0 1 1 32.47104 0v183.5264h161.73056a16.2304 16.2304 0 1 1 0 32.46592z" p-id="33005"></path></svg>